<svg width="31" height="29" viewBox="0 0 31 29" fill="none" xmlns="http://www.w3.org/2000/svg">
<path d="M30.753 23.4045C30.753 23.8576 30.573 24.2922 30.2526 24.6126C29.9322 24.933 29.4976 25.113 29.0445 25.113C28.5914 25.113 28.1568 24.933 27.8364 24.6126C27.516 24.2922 27.336 23.8576 27.336 23.4045V20.5045C27.336 20.0514 27.156 19.6168 26.8356 19.2964C26.5152 18.976 26.0806 18.796 25.6275 18.796C25.1744 18.796 24.7398 18.976 24.4194 19.2964C24.099 19.6168 23.919 20.0514 23.919 20.5045V26.9045C23.919 27.3576 23.739 27.7922 23.4186 28.1126C23.0982 28.433 22.6636 28.613 22.2105 28.613C21.7574 28.613 21.3228 28.433 21.0024 28.1126C20.682 27.7922 20.502 27.3576 20.502 26.9045V18.9865C20.502 18.5334 20.322 18.0988 20.0016 17.7784C19.6812 17.458 19.2466 17.278 18.7935 17.278C18.3404 17.278 17.9058 17.458 17.5854 17.7784C17.265 18.0988 17.085 18.5334 17.085 18.9865V23.4035C17.085 23.8566 16.905 24.2912 16.5846 24.6116C16.2642 24.932 15.8296 25.112 15.3765 25.112C14.9234 25.112 14.4888 24.932 14.1684 24.6116C13.848 24.2912 13.668 23.8566 13.668 23.4035V22.5225C13.668 22.0694 13.488 21.6348 13.1676 21.3144C12.8472 20.994 12.4126 20.814 11.9595 20.814C11.5064 20.814 11.0718 20.994 10.7514 21.3144C10.431 21.6348 10.251 22.0694 10.251 22.5225V25.7405C10.251 26.1936 10.071 26.6282 9.75059 26.9486C9.43019 27.269 8.99562 27.449 8.5425 27.449C8.08938 27.449 7.65481 27.269 7.33441 26.9486C7.014 26.6282 6.834 26.1936 6.834 25.7405V20.8325C6.834 20.3794 6.654 19.9448 6.33359 19.6244C6.01319 19.304 5.57862 19.124 5.1255 19.124C4.67238 19.124 4.23781 19.304 3.91741 19.6244C3.597 19.9448 3.417 20.3794 3.417 20.8325V23.4015C3.417 23.8546 3.237 24.2892 2.91659 24.6096C2.59619 24.93 2.16162 25.11 1.7085 25.11C1.25538 25.11 0.820814 24.93 0.500408 24.6096C0.180002 24.2892 0 23.8546 0 23.4015V10.6315C0 10.1784 0.180002 9.74381 0.500408 9.42341C0.820814 9.103 1.25538 8.923 1.7085 8.923C2.16162 8.923 2.59619 9.103 2.91659 9.42341C3.237 9.74381 3.417 10.1784 3.417 10.6315V12.3445C3.417 12.7976 3.597 13.2322 3.91741 13.5526C4.23781 13.873 4.67238 14.053 5.1255 14.053C5.57862 14.053 6.01319 13.873 6.33359 13.5526C6.654 13.2322 6.834 12.7976 6.834 12.3445V7.8215C6.834 7.36838 7.014 6.93381 7.33441 6.61341C7.65481 6.293 8.08938 6.113 8.5425 6.113C8.99562 6.113 9.43019 6.293 9.75059 6.61341C10.071 6.93381 10.251 7.36838 10.251 7.8215V13.8335C10.251 14.2866 10.431 14.7212 10.7514 15.0416C11.0718 15.362 11.5064 15.542 11.9595 15.542C12.4126 15.542 12.8472 15.362 13.1676 15.0416C13.488 14.7212 13.668 14.2866 13.668 13.8335V1.7085C13.668 1.48414 13.7122 1.26197 13.7981 1.05469C13.8839 0.847401 14.0098 0.659057 14.1684 0.500408C14.3271 0.341759 14.5154 0.215912 14.7227 0.130052C14.93 0.0441917 15.1521 0 15.3765 0C15.6009 0 15.823 0.0441917 16.0303 0.130052C16.2376 0.215912 16.4259 0.341759 16.5846 0.500408C16.7432 0.659057 16.8691 0.847401 16.9549 1.05469C17.0408 1.26197 17.085 1.48414 17.085 1.7085V9.0385C17.085 9.49162 17.265 9.92619 17.5854 10.2466C17.9058 10.567 18.3404 10.747 18.7935 10.747C19.2466 10.747 19.6812 10.567 20.0016 10.2466C20.322 9.92619 20.502 9.49162 20.502 9.0385V7.1595C20.502 6.70638 20.682 6.27181 21.0024 5.95141C21.3228 5.631 21.7574 5.451 22.2105 5.451C22.6636 5.451 23.0982 5.631 23.4186 5.95141C23.739 6.27181 23.919 6.70638 23.919 7.1595V12.3455C23.919 12.7986 24.099 13.2332 24.4194 13.5536C24.7398 13.874 25.1744 14.054 25.6275 14.054C26.0806 14.054 26.5152 13.874 26.8356 13.5536C27.156 13.2332 27.336 12.7986 27.336 12.3455V10.6315C27.336 10.1784 27.516 9.74381 27.8364 9.42341C28.1568 9.103 28.5914 8.923 29.0445 8.923C29.4976 8.923 29.9322 9.103 30.2526 9.42341C30.573 9.74381 30.753 10.1784 30.753 10.6315V23.4035V23.4045Z" fill="url(#paint0_linear_205_6829)"/>
<defs>
<linearGradient id="paint0_linear_205_6829" x1="37.3034" y1="5.09311" x2="-22.8676" y2="37.9893" gradientUnits="userSpaceOnUse">
<stop stop-color="#18FF6D"/>
<stop offset="1" stop-color="#2EB542"/>
</linearGradient>
</defs>
</svg>
